<?xml version="1.0" encoding="UTF-8" standalone="no"?>
<!DOCTYPE svg PUBLIC "-//W3C//DTD SVG 1.1//EN" "http://www.w3.org/Graphics/SVG/1.1/DTD/svg11.dtd">
<svg width="100%" height="100%" viewBox="0 0 5120 2880" version="1.1" xmlns="http://www.w3.org/2000/svg" xmlns:xlink="http://www.w3.org/1999/xlink" xml:space="preserve" xmlns:serif="http://www.serif.com/" style="fill-rule:evenodd;clip-rule:evenodd;stroke-linejoin:round;stroke-miterlimit:2;">
    <g transform="matrix(2.66667,0,0,2.66667,0,0)">
        <g transform="matrix(1,0,0,1,513.183,-291.807)">
            <path id="discover-path" d="M580.909,810.224L580.909,774.433L596.779,774.433C599.969,774.433 602.394,774.754 604.054,775.397C605.714,776.04 607.041,777.175 608.033,778.803C609.026,780.431 609.523,782.229 609.523,784.198C609.523,786.738 608.701,788.878 607.057,790.619C605.413,792.361 602.874,793.468 599.44,793.94C600.693,794.542 601.645,795.136 602.296,795.722C603.68,796.991 604.99,798.578 606.227,800.483L612.452,810.224L606.495,810.224L601.759,802.778C600.376,800.629 599.236,798.985 598.341,797.846C597.446,796.707 596.644,795.909 595.936,795.453C595.228,794.998 594.508,794.68 593.776,794.501C593.238,794.387 592.36,794.33 591.139,794.33L585.646,794.33L585.646,810.224L580.909,810.224ZM585.646,790.229L595.826,790.229C597.991,790.229 599.684,790.005 600.904,789.557C602.125,789.11 603.053,788.394 603.688,787.409C604.322,786.424 604.64,785.354 604.64,784.198C604.64,782.506 604.025,781.114 602.797,780.024C601.568,778.933 599.627,778.388 596.974,778.388L585.646,778.388L585.646,790.229ZM547.584,810.224L547.584,774.433L573.463,774.433L573.463,778.656L552.32,778.656L552.32,789.618L572.12,789.618L572.12,793.818L552.32,793.818L552.32,806L574.293,806L574.293,810.224L547.584,810.224ZM524.366,810.224L510.499,774.433L515.626,774.433L524.928,800.434C525.677,802.517 526.303,804.47 526.808,806.293C527.361,804.34 528.004,802.387 528.737,800.434L538.404,774.433L543.238,774.433L529.225,810.224L524.366,810.224ZM473.805,792.792C473.805,786.851 475.4,782.201 478.59,778.84C481.78,775.479 485.898,773.798 490.944,773.798C494.248,773.798 497.226,774.587 499.879,776.166C502.532,777.745 504.554,779.946 505.946,782.77C507.338,785.594 508.033,788.796 508.033,792.377C508.033,796.007 507.301,799.254 505.836,802.118C504.371,804.983 502.296,807.152 499.611,808.625C496.925,810.098 494.028,810.834 490.919,810.834C487.55,810.834 484.539,810.02 481.886,808.393C479.233,806.765 477.223,804.544 475.856,801.728C474.488,798.912 473.805,795.933 473.805,792.792ZM478.688,792.865C478.688,797.179 479.847,800.576 482.167,803.058C484.486,805.54 487.395,806.781 490.895,806.781C494.459,806.781 497.393,805.528 499.696,803.022C501.999,800.515 503.151,796.959 503.151,792.353C503.151,789.439 502.658,786.896 501.674,784.723C500.689,782.551 499.248,780.866 497.352,779.67C495.456,778.473 493.328,777.875 490.968,777.875C487.615,777.875 484.73,779.027 482.313,781.33C479.896,783.633 478.688,787.478 478.688,792.865ZM464.674,797.675L469.41,798.871C468.417,802.761 466.631,805.728 464.051,807.77C461.472,809.813 458.318,810.834 454.591,810.834C450.734,810.834 447.596,810.049 445.179,808.478C442.762,806.908 440.923,804.633 439.662,801.655C438.4,798.676 437.77,795.478 437.77,792.06C437.77,788.333 438.482,785.081 439.906,782.306C441.33,779.531 443.356,777.424 445.985,775.983C448.614,774.543 451.507,773.822 454.664,773.822C458.245,773.822 461.256,774.734 463.697,776.557C466.139,778.38 467.84,780.943 468.8,784.247L464.137,785.346C463.307,782.742 462.102,780.846 460.524,779.657C458.945,778.469 456.959,777.875 454.567,777.875C451.816,777.875 449.517,778.534 447.67,779.853C445.822,781.171 444.524,782.941 443.776,785.163C443.027,787.385 442.653,789.675 442.653,792.035C442.653,795.079 443.096,797.736 443.983,800.007C444.87,802.277 446.25,803.974 448.121,805.097C449.993,806.22 452.019,806.781 454.2,806.781C456.853,806.781 459.099,806.016 460.939,804.487C462.778,802.957 464.023,800.686 464.674,797.675ZM404.176,798.725L408.644,798.334C408.855,800.125 409.348,801.593 410.121,802.741C410.894,803.888 412.094,804.816 413.722,805.524C415.349,806.232 417.181,806.586 419.215,806.586C421.022,806.586 422.617,806.318 424,805.78C425.384,805.243 426.413,804.507 427.089,803.571C427.764,802.635 428.102,801.614 428.102,800.507C428.102,799.384 427.776,798.403 427.125,797.565C426.474,796.727 425.4,796.023 423.903,795.453C422.942,795.079 420.818,794.497 417.53,793.708C414.243,792.918 411.94,792.174 410.621,791.474C408.912,790.579 407.639,789.468 406.8,788.141C405.962,786.815 405.543,785.33 405.543,783.686C405.543,781.879 406.056,780.19 407.081,778.62C408.107,777.049 409.604,775.857 411.573,775.043C413.543,774.229 415.732,773.822 418.141,773.822C420.794,773.822 423.133,774.25 425.16,775.104C427.186,775.959 428.745,777.216 429.835,778.876C430.926,780.536 431.512,782.416 431.593,784.516L427.052,784.858C426.808,782.595 425.982,780.886 424.574,779.731C423.166,778.575 421.087,777.997 418.336,777.997C415.472,777.997 413.384,778.522 412.074,779.572C410.764,780.622 410.109,781.887 410.109,783.368C410.109,784.654 410.572,785.712 411.5,786.542C412.412,787.372 414.792,788.223 418.641,789.093C422.491,789.964 425.131,790.725 426.564,791.376C428.647,792.336 430.185,793.553 431.178,795.026C432.171,796.499 432.667,798.196 432.667,800.116C432.667,802.021 432.122,803.815 431.031,805.5C429.941,807.184 428.374,808.495 426.332,809.43C424.289,810.366 421.99,810.834 419.435,810.834C416.196,810.834 413.482,810.362 411.293,809.418C409.104,808.474 407.386,807.054 406.141,805.158C404.896,803.262 404.241,801.117 404.176,798.725ZM392.701,810.224L392.701,774.433L397.438,774.433L397.438,810.224L392.701,810.224ZM355.787,810.224L355.787,774.433L368.116,774.433C370.9,774.433 373.024,774.604 374.488,774.946C376.539,775.418 378.289,776.272 379.737,777.509C381.626,779.104 383.037,781.143 383.973,783.625C384.909,786.107 385.377,788.943 385.377,792.133C385.377,794.851 385.06,797.26 384.425,799.36C383.79,801.459 382.976,803.197 381.984,804.572C380.991,805.947 379.904,807.03 378.724,807.819C377.544,808.608 376.12,809.207 374.452,809.614C372.784,810.02 370.867,810.224 368.702,810.224L355.787,810.224ZM360.524,806L368.165,806C370.525,806 372.377,805.78 373.719,805.341C375.062,804.902 376.132,804.283 376.93,803.486C378.053,802.363 378.928,800.853 379.554,798.957C380.181,797.061 380.494,794.762 380.494,792.06C380.494,788.316 379.88,785.44 378.651,783.429C377.422,781.419 375.929,780.072 374.171,779.389C372.902,778.901 370.859,778.656 368.043,778.656L360.524,778.656L360.524,806Z" style="fill:rgb(248,92,92);"/>
        </g>
    </g>
</svg>
